<svg width="174" height="174" viewBox="0 0 174 174" fill="none" xmlns="http://www.w3.org/2000/svg">
<path d="M161.532 85.8745L90.8443 15.187C88.7183 13.0609 85.2818 13.0609 83.1557 15.187L12.4682 85.8745C10.3421 88.0005 10.3421 91.437 12.4682 93.5631C14.5943 95.6891 18.0308 95.6891 20.1568 93.5631L87 26.7199L130.576 70.296C130.571 70.432 130.5 70.5516 130.5 70.6875V152.25H43.5V97.875C43.5 94.8681 41.064 92.4375 38.0625 92.4375C35.061 92.4375 32.625 94.8681 32.625 97.875V157.688C32.625 160.694 35.061 163.125 38.0625 163.125H135.938C138.944 163.125 141.375 160.694 141.375 157.688V81.0949L153.843 93.5631C154.904 94.6234 156.296 95.1563 157.688 95.1563C159.08 95.1563 160.472 94.6234 161.532 93.5631C163.658 91.437 163.658 88.0005 161.532 85.8745Z" fill="black"/>
<path fill-rule="evenodd" clip-rule="evenodd" d="M71.8 86H64.2V124H71.8V106.9H102.2V124H109.8V86H102.2V103.1H71.8V86ZM121.2 103.1V91.7H113.6V118.3H121.2V106.9H125V103.1H121.2ZM49 106.9H52.8V118.3H60.4V91.7H52.8V103.1H49V106.9Z" fill="black"/>
</svg>
