<svg id="visual" viewBox="0 0 960 540" width="960" height="540" xmlns="http://www.w3.org/2000/svg" xmlns:xlink="http://www.w3.org/1999/xlink" version="1.1"><path d="M0 119L12.3 115.8C24.7 112.7 49.3 106.3 74 100.5C98.7 94.7 123.3 89.3 148 91.5C172.7 93.7 197.3 103.3 221.8 109.5C246.3 115.7 270.7 118.3 295.2 114.3C319.7 110.3 344.3 99.7 369 101C393.7 102.3 418.3 115.7 443 114.2C467.7 112.7 492.3 96.3 517 90C541.7 83.7 566.3 87.3 591 89.8C615.7 92.3 640.3 93.7 664.8 98.5C689.3 103.3 713.7 111.7 738.2 114.2C762.7 116.7 787.3 113.3 812 110.2C836.7 107 861.3 104 886 104.8C910.7 105.7 935.3 110.3 947.7 112.7L960 115L960 0L947.7 0C935.3 0 910.7 0 886 0C861.3 0 836.7 0 812 0C787.3 0 762.7 0 738.2 0C713.7 0 689.3 0 664.8 0C640.3 0 615.7 0 591 0C566.3 0 541.7 0 517 0C492.3 0 467.7 0 443 0C418.3 0 393.7 0 369 0C344.3 0 319.7 0 295.2 0C270.7 0 246.3 0 221.8 0C197.3 0 172.7 0 148 0C123.3 0 98.7 0 74 0C49.3 0 24.7 0 12.3 0L0 0Z" fill="#1d4044"></path><path d="M0 63L12.3 67.8C24.7 72.7 49.3 82.3 74 83.5C98.7 84.7 123.3 77.3 148 75.2C172.7 73 197.3 76 221.8 81.8C246.3 87.7 270.7 96.3 295.2 96.2C319.7 96 344.3 87 369 82.7C393.7 78.3 418.3 78.7 443 83.3C467.7 88 492.3 97 517 94.5C541.7 92 566.3 78 591 78C615.7 78 640.3 92 664.8 92.3C689.3 92.7 713.7 79.3 738.2 75.2C762.7 71 787.3 76 812 79.2C836.7 82.3 861.3 83.7 886 82.7C910.7 81.7 935.3 78.3 947.7 76.7L960 75L960 0L947.7 0C935.3 0 910.7 0 886 0C861.3 0 836.7 0 812 0C787.3 0 762.7 0 738.2 0C713.7 0 689.3 0 664.8 0C640.3 0 615.7 0 591 0C566.3 0 541.7 0 517 0C492.3 0 467.7 0 443 0C418.3 0 393.7 0 369 0C344.3 0 319.7 0 295.2 0C270.7 0 246.3 0 221.8 0C197.3 0 172.7 0 148 0C123.3 0 98.7 0 74 0C49.3 0 24.7 0 12.3 0L0 0Z" fill="#196362"></path><path d="M0 56L12.3 61C24.7 66 49.3 76 74 80.2C98.7 84.3 123.3 82.7 148 78C172.7 73.3 197.3 65.7 221.8 61C246.3 56.3 270.7 54.7 295.2 58C319.7 61.3 344.3 69.7 369 70.7C393.7 71.7 418.3 65.3 443 65.2C467.7 65 492.3 71 517 74.2C541.7 77.3 566.3 77.7 591 77C615.7 76.3 640.3 74.7 664.8 71.7C689.3 68.7 713.7 64.3 738.2 61.7C762.7 59 787.3 58 812 62.2C836.7 66.3 861.3 75.7 886 77.7C910.7 79.7 935.3 74.3 947.7 71.7L960 69L960 0L947.7 0C935.3 0 910.7 0 886 0C861.3 0 836.7 0 812 0C787.3 0 762.7 0 738.2 0C713.7 0 689.3 0 664.8 0C640.3 0 615.7 0 591 0C566.3 0 541.7 0 517 0C492.3 0 467.7 0 443 0C418.3 0 393.7 0 369 0C344.3 0 319.7 0 295.2 0C270.7 0 246.3 0 221.8 0C197.3 0 172.7 0 148 0C123.3 0 98.7 0 74 0C49.3 0 24.7 0 12.3 0L0 0Z" fill="#1f8879"></path><path d="M0 46L12.3 48C24.7 50 49.3 54 74 55C98.7 56 123.3 54 148 52.3C172.7 50.7 197.3 49.3 221.8 45.7C246.3 42 270.7 36 295.2 36.8C319.7 37.7 344.3 45.3 369 48.7C393.7 52 418.3 51 443 48.2C467.7 45.3 492.3 40.7 517 39.3C541.7 38 566.3 40 591 42.2C615.7 44.3 640.3 46.7 664.8 44.8C689.3 43 713.7 37 738.2 35.8C762.7 34.7 787.3 38.3 812 43C836.7 47.7 861.3 53.3 886 56.7C910.7 60 935.3 61 947.7 61.5L960 62L960 0L947.7 0C935.3 0 910.7 0 886 0C861.3 0 836.7 0 812 0C787.3 0 762.7 0 738.2 0C713.7 0 689.3 0 664.8 0C640.3 0 615.7 0 591 0C566.3 0 541.7 0 517 0C492.3 0 467.7 0 443 0C418.3 0 393.7 0 369 0C344.3 0 319.7 0 295.2 0C270.7 0 246.3 0 221.8 0C197.3 0 172.7 0 148 0C123.3 0 98.7 0 74 0C49.3 0 24.7 0 12.3 0L0 0Z" fill="#3cad89"></path><path d="M0 37L12.3 35.2C24.7 33.3 49.3 29.7 74 26C98.7 22.3 123.3 18.7 148 18.7C172.7 18.7 197.3 22.3 221.8 24.7C246.3 27 270.7 28 295.2 29.2C319.7 30.3 344.3 31.7 369 32.5C393.7 33.3 418.3 33.7 443 34.7C467.7 35.7 492.3 37.3 517 34.5C541.7 31.7 566.3 24.3 591 21.7C615.7 19 640.3 21 664.8 24.5C689.3 28 713.7 33 738.2 33.3C762.7 33.7 787.3 29.3 812 25.7C836.7 22 861.3 19 886 19C910.7 19 935.3 22 947.7 23.5L960 25L960 0L947.7 0C935.3 0 910.7 0 886 0C861.3 0 836.7 0 812 0C787.3 0 762.7 0 738.2 0C713.7 0 689.3 0 664.8 0C640.3 0 615.7 0 591 0C566.3 0 541.7 0 517 0C492.3 0 467.7 0 443 0C418.3 0 393.7 0 369 0C344.3 0 319.7 0 295.2 0C270.7 0 246.3 0 221.8 0C197.3 0 172.7 0 148 0C123.3 0 98.7 0 74 0C49.3 0 24.7 0 12.3 0L0 0Z" fill="#68d391"></path></svg>